<?xml version="1.0" encoding="UTF-8"?>
<svg xmlns="http://www.w3.org/2000/svg" viewBox="0 0 486.51 46.36"><path fill="#010101" d="M58.34 3.65h4.8v36.33h-4.8zm15.05 17.54h4.8v15.04h-4.8zm2.4-10.46c-1.67 0-3.12 1.36-3.12 3.05s1.45 3 3.12 3 3.12-1.31 3.12-3-1.4-3.05-3.12-3.05M96.25 36.5c-1.45 0-2.12-1.14-2.12-3V17.76h4.52v-4.08h-4.52V6.49h-4.74v7.19h-3.57v4.08h3.57v16.67c0 4.08 1.84 6.21 5.8 6.21 2.18 0 3.63-.65 4.58-1.58l-1.23-3.49c-.5.55-1.34.93-2.29.93m18.57 0c-1.45 0-2.12-1.14-2.12-3V17.76h4.52v-4.08h-4.52V6.49h-4.74v7.19h-3.57v4.08h3.57v16.67c0 4.08 1.84 6.21 5.8 6.21 2.18 0 3.63-.65 4.58-1.58l-1.23-3.49c-.5.55-1.34.93-2.29.93m10.75-32.85h4.8v36.33h-4.8zm24.99 9.37c-7.03 0-11.27 6.15-11.27 13.78 0 8.11 4.57 13.83 11.88 13.83 3.63 0 6.81-1.53 9.09-4.09l-2.45-2.83c-1.62 1.96-4.02 3.05-6.19 3.05-4.63 0-7.19-3.65-7.42-8.44h17.29v-1.36c0-7.79-3.73-13.94-10.93-13.94M144.15 25c.17-3.54 1.9-8.12 6.36-8.12s6.25 4.47 6.3 8.12h-12.66Zm217.99-.51c-1.98 0-3.99.67-5.51 2.22l1.14 1.9c1.23-1.23 2.5-1.8 3.92-1.8 2.01 0 3.11 1.14 3.11 3.1v2.44c-.94-1.3-2.5-1.9-4.12-1.9-2.53 0-4.76 1.77-4.76 5s2.24 5.1 4.76 5.1c1.59 0 3.14-.66 4.12-1.96v1.58h2.79V29.6c0-3.61-2.24-5.1-5.45-5.1m2.66 12.32a3.6 3.6 0 0 1-3.15 1.84c-1.81 0-2.92-1.36-2.92-3.14s1.1-3.14 2.92-3.14c1.26 0 2.5.67 3.15 1.84v2.6Zm14.91-9.92c1.17 0 2.11.44 2.92 1.49l1.46-1.84c-.94-1.17-2.37-2.06-4.64-2.06-4.08 0-6.68 3.45-6.68 8.01s2.59 8.04 6.68 8.04c2.27 0 3.7-.85 4.64-2.06l-1.46-1.83c-.81 1.01-1.75 1.49-2.92 1.49-2.63 0-4.05-2.57-4.05-5.64s1.43-5.6 4.05-5.6m14.52-2.41c-1.98 0-3.99.67-5.51 2.22l1.14 1.9c1.23-1.23 2.5-1.8 3.92-1.8 2.01 0 3.11 1.14 3.11 3.1v2.44c-.94-1.3-2.5-1.9-4.12-1.9-2.53 0-4.76 1.77-4.76 5s2.24 5.1 4.76 5.1c1.59 0 3.14-.66 4.12-1.96v1.58h2.79V29.6c0-3.61-2.24-5.1-5.45-5.1m2.66 12.32a3.6 3.6 0 0 1-3.15 1.84c-1.81 0-2.92-1.36-2.92-3.14s1.1-3.14 2.92-3.14c1.26 0 2.5.67 3.15 1.84v2.6Zm17.73-9.83c-.97-1.64-2.53-2.5-4.08-2.5-3.53 0-5.67 3.26-5.67 8.04s2.17 8.01 5.67 8.01c1.59 0 3.14-.95 4.08-2.47v2.09h2.76V17.18h-2.76v9.81Zm0 8.87c-.58 1.23-1.95 2.28-3.3 2.28-2.4 0-3.57-2.5-3.57-5.6s1.17-5.63 3.57-5.63c1.36 0 2.72 1.07 3.3 2.31v6.65Zm14.53-11.37c-4.08 0-6.55 3.58-6.55 8.01 0 4.72 2.66 8.04 6.9 8.04 2.11 0 3.96-.89 5.28-2.37l-1.43-1.65c-.94 1.14-2.33 1.77-3.6 1.77-2.69 0-4.18-2.12-4.31-4.91h10.05v-.79c0-4.53-2.17-8.1-6.35-8.1m-3.73 6.97c.1-2.06 1.1-4.72 3.7-4.72s3.63 2.6 3.66 4.72h-7.36Zm30.32-6.97c-1.88 0-3.7 1.33-4.44 2.72-.32-1.68-1.59-2.72-3.6-2.72s-3.7 1.39-4.31 2.5v-2.12h-2.79v15.29h2.79V29.18c.62-1.11 1.85-2.28 3.18-2.28 1.46 0 2.11.89 2.11 2.4v10.86h2.76V29.18c.58-1.14 1.85-2.28 3.21-2.28s2.07.85 2.07 2.4v10.86h2.76V28.48c0-2.75-1.36-3.99-3.73-3.99m18.21.38-3.73 12-3.67-12h-2.98l5.22 15.61-.75 2.09c-.39 1.04-.91 1.39-1.81 1.39-.26 0-.71-.06-1-.22l-.45 2.41c.39.13 1.2.22 1.66.22 2.04 0 3.44-.76 4.25-3.17l6.22-18.33h-2.95ZM197.73 13.68h-5.63l-10.32 13.61V3.65h-4.8v36.33h4.8v-6.92l3.51-4.52 6.86 11.44h5.63l-9.2-14.49 9.15-11.81zm28.46 22.82c-1.45 0-2.12-1.14-2.12-3V17.76h4.52v-4.08h-4.52V6.49h-4.74v7.19h-3.57v4.08h3.57v16.67c0 4.08 1.84 6.21 5.8 6.21 2.18 0 3.63-.65 4.57-1.58l-1.23-3.49c-.5.55-1.34.93-2.29.93m21.36-19.34c2.01 0 3.63.76 5.02 2.56l2.51-3.16c-1.62-2.01-4.07-3.54-7.97-3.54-7.03 0-11.49 5.93-11.49 13.78s4.46 13.84 11.49 13.84c3.91 0 6.36-1.47 7.97-3.54l-2.51-3.16c-1.39 1.74-3.01 2.56-5.02 2.56-4.52 0-6.97-4.41-6.97-9.69s2.45-9.64 6.97-9.64m28.33-4.15c-3.29 0-6.36 2.12-7.86 4.3V3.65h-4.8v36.33h4.8v-18.9c1.12-2.01 3.4-3.92 5.91-3.92s4.07 1.14 4.07 4.41v18.41h4.8V20.1c0-4.74-2.23-7.08-6.92-7.08m27.09 0c-7.03 0-11.27 6.15-11.27 13.78 0 8.12 4.57 13.84 11.88 13.84 3.63 0 6.81-1.53 9.09-4.09l-2.45-2.83c-1.62 1.96-4.02 3.05-6.19 3.05-4.63 0-7.19-3.65-7.42-8.44h17.29v-1.36c0-7.79-3.73-13.94-10.93-13.94m-6.41 11.98c.17-3.54 1.9-8.12 6.36-8.12s6.25 4.47 6.3 8.12h-12.66Zm38.69-11.99c-3.29 0-6.3 2.12-7.81 4.3v-3.65h-4.8v26.3h4.8V21.08c1.11-2.01 3.35-3.92 5.91-3.92s4.07 1.2 4.07 4.52v18.3h4.74V20.16c0-4.63-2.23-7.13-6.91-7.13M206.3 7.79c-1.67 0-3.12 1.36-3.12 3.05s1.45 3 3.12 3 3.12-1.31 3.12-3-1.4-3.05-3.12-3.05m-2.4 10.46h4.8v21.33h-4.8zM35.5 4.42c.21.29.47.57.76.89.24.26.49.55.76.86l1.66-6.18S37.31.37 35.8.8c-.59.39-1.12.86-1.14 1.57-.01.59.26 1.26.84 2.04"/><path fill="#010101" d="M35.9 5.64c-.29-.32-.57-.63-.8-.94-.64-.87-.95-1.64-.93-2.34.01-.5.22-.91.51-1.24-.96.27-1.85.52-2.34.67-1.42.42-2.82.95-4.01 1.84-1.79 1.34-2.9 3.37-3.71 5.43-.81 2.06-1.4 4.2-2.33 6.2-1.45 3.13-6.09 7.94-6.95 8.86C11.13 28.68.97 37.82.01 38.69c-.03.02 0 .07.03.07h4.13c.11 0 .21-.04.3-.11l6.36-5.95c.33-.27.97-.22 1.4-.22h9.4c.75 0 1.58.01 2.42.02v6.84h-2.32c-.21 0-.37.16-.37.37s.17.37.37.37h9.37a.37.37 0 1 0 0-.74h-4.31v-6.87c1.06-.04 2.04-.13 2.78-.32 4.92-1.26 8.74-5.49 10-10.3 1.13-4.33.3-9.31-1.86-13.87-.63-1.05-1.26-1.75-1.81-2.34m-9.86 33.71h-1.25v-6.84c.42 0 .84 0 1.25-.01v6.85Zm5.88-32.48c-.29.28-.75.28-1.04 0a.707.707 0 0 1 0-1.02c.29-.28.75-.28 1.04 0 .29.28.29.74 0 1.02m448.83 20.81c0-1.56 1.29-2.81 2.88-2.81s2.88 1.25 2.88 2.81-1.28 2.81-2.88 2.81-2.88-1.26-2.88-2.81m.45 0c0 1.3 1.08 2.37 2.43 2.37s2.43-1.07 2.43-2.37-1.08-2.37-2.43-2.37-2.43 1.05-2.43 2.37m2.34.35H483v1.27h-.49v-3.22h1.34c.58 0 1.1.38 1.1.98 0 .71-.65.95-.84.95l.88 1.28h-.59l-.86-1.27Zm-.54-1.55v1.14h.85c.31 0 .6-.23.6-.56 0-.36-.28-.58-.6-.58H483Z"/></svg>